<?xml version="1.0" encoding="utf-8"?>
<?xml-stylesheet type="text/xsl" href="rss1.xsl"?>
<rss version="2.0" xmlns:atom="http://www.w3.org/2005/Atom" xmlns:content="http://purl.org/rss/1.0/modules/content/" xmlns:dc="http://purl.org/dc/elements/1.1/" xmlns:media="http://search.yahoo.com/mrss/">
<channel>
 <title>Getty</title>
 <link>http://www.gettyimg.com/</link>
 <atom:link href="http://www.gettyimg.com/" rel="self" type="application/rss+xml" />

 
                <item>
                <title><![CDATA[【Cinema Center】SERIES - Bratz.S01.720p.KDLE.WEB-DL.AAC2.0.x264-Samuel]]></title>
                <link><![CDATA[https://sharemania.us/threads/bratz-s01-720p-kdle-web-dl-aac2-0-x264-samuel.235072/]]></link>
                <description><![CDATA[<article>
<blockquote class="messageText SelectQuoteContainer ugc baseHtml">
<div style="text-align: center"><b><span style="font-size: 26px">Bratz</span><br>
<span style="font-size: 22px">Season 1</span></b><br>
<img src="https://i.imgur.com/v3i6qlM.jpg" class="bbCodeImage LbImage" alt="[​IMG]" data-url="https://i.imgur.com/v3i6qlM.jpg" style=""><br>
<b><a href="https://i.imgur.com/fvHgqdF.jpg" target="_blank" class="externalLink" rel="nofollow">Banner Art</a></b> | <b><a href="https://i.imgur.com/Xm7IMsz.jpg" target="_blank" class="externalLink" rel="nofollow">Poster</a></b> | <b><a href="https://i.imgur.com/IC7hh0J.png" target="_blank" class="externalLink" rel="nofollow">Logo</a></b> | <b><a href="https://i.imgur.com/tJ2ejZq.jpg" target="_blank" class="externalLink" rel="nofollow">Thumbnail</a></b><br>
<br>
Kids &amp; Family • 2005-2006 • 2 Seasons • TV-Y7<br>
<b>Voices of:</b> Lacey Chabert, Soleil Moon Frye, Olivia Hack, Tia Mowry, Dionne Quan, Wendie Malick, Kaley Cuoco<br>
<br>
<div class="bbCodeBlock bbCodeQuote">
<aside>
<blockquote class="quoteContainer"><div class="quote"><b><span style="font-size: 15px"><span style="font-family: 'Arial'">Description</span></span></b><br>
Set in the fictional city of Stilesville, the show revolves around four adolescents (Cloe, Jade, Sasha, Yasmin) running their own teen magazine, titled "Bratz", while juggling school life at Stiles High School.</div><div class="quoteExpand">Click to expand...</div></blockquote>
</aside>
</div>
<div class="bbCodeBlock bbCodeQuote">
<aside>
<blockquote class="quoteContainer"><div class="quote"><span style="font-family: 'Arial'"><span style="font-size: 15px"><b>Trailers</b></span></span><br>
<span data-s9e-mediaembed="googledrive" style="display:inline-block;width:100%;max-width:640px"><span style="display:block;overflow:hidden;position:relative;padding-bottom:75%"><iframe allowfullscreen="" loading="lazy" scrolling="no" src="//drive.google.com/file/d/1Dcv7nkl_NXenhayBBiYmzl9q8YYWprAP/preview" style="border:0;height:100%;left:0;position:absolute;width:100%"></iframe></span></span></div><div class="quoteExpand quoteCut">Click to expand...</div></blockquote>
</aside>
</div>
<div class="bbCodeBlock bbCodeQuote">
<aside>
<blockquote class="quoteContainer"><div class="quote"><span style="font-family: 'Arial'"><span style="font-size: 15px"><b>Accessibility</b></span></span><br>
<b>Audio languages:</b> English<br>
<b>Subtitles:</b> English (CC)</div><div class="quoteExpand">Click to expand...</div></blockquote>
</aside>
</div>
<div class="bbCodeBlock bbCodeQuote">
<aside>
<blockquote class="quoteContainer"><div class="quote"><b><span style="font-size: 15px"><span style="font-family: 'Arial'">Source</span></span></b><br>
<img src="https://i.imgur.com/xo0xvt2.png" class="bbCodeImage LbImage" alt="[​IMG]" data-url="https://i.imgur.com/xo0xvt2.png" style=""></div><div class="quoteExpand">Click to expand...</div></blockquote>
</aside>
</div>
<div class="bbCodeBlock bbCodeQuote">
<aside>
<blockquote class="quoteContainer"><div class="quote"><b><span style="font-size: 15px">Release Name</span></b><br>
Bratz.S01.720p.KDLE.WEB-DL.AAC2.0.x264-Samuel</div><div class="quoteExpand">Click to expand...</div></blockquote>
</aside>
</div>
<div class="ToggleTriggerAnchor bbCodeSpoilerContainer">
<button type="button" class="button bbCodeSpoilerButton ToggleTrigger Tooltip JsOnly" data-target="> .SpoilerTarget"><span>Spoiler: <span class="SpoilerTitle">Media Information</span></span></button>
<div class="SpoilerTarget bbCodeSpoilerText"><b><span style="text-decoration: underline">Episode 1: Birth of a Magazine</span></b><br>
General<br>
Complete name : Bratz.S01E01.Birth.of.a.Magazine.720p.KDLE.WEB-DL.AAC2.0.x264-Samuel.mkv<br>
Format : Matroska<br>
Format version : Version 4<br>
File size : 280 MiB<br>
Duration : 20 min 24 s<br>
Overall bit rate : 1 919 kb/s<br>
Frame rate : 24.000 FPS<br>
Encoded date : 2023-05-01 09:25:07 UTC<br>
Writing application : mkvmerge v76.0 ('Celebration') 64-bit<br>
Writing library : libebml v1.4.4 + libmatroska v1.7.1 / Lavf58.32.104<br>
<br>
Video<br>
ID : 1<br>
Format : AVC<br>
Format/Info : Advanced Video Codec<br>
Format profile : High@L4.1<br>
Format settings : CABAC / 2 Ref Frames<br>
Format settings, CABAC : Yes<br>
Format settings, Reference frames : 2 frames<br>
Codec ID : V_MPEG4/ISO/AVC<br>
Duration : 20 min 24 s<br>
Bit rate : 1 722 kb/s<br>
Width : 1 280 pixels<br>
Height : 720 pixels<br>
Display aspect ratio : 16:9<br>
Frame rate mode : Constant<br>
Frame rate : 24.000 FPS<br>
Color space : YUV<br>
Chroma subsampling : 4:2:0<br>
Bit depth : 8 bits<br>
Scan type : Progressive<br>
Bits/(Pixel*Frame) : 0.078<br>
Stream size : 251 MiB (90%)<br>
Writing library : x264 core 155 r2917 0a84d98<br>
Encoding settings : cabac=1 / ref=1 / deblock=1:0:0 / analyse=0x3:0x133 / me=umh / subme=10 / psy=0 / mixed_ref=0 / me_range=24 / chroma_me=1 / trellis=2 / 8x8dct=1 / cqm=0 / deadzone=21,11 / fast_pskip=1 / chroma_qp_offset=0 / threads=22 / lookahead_threads=1 / sliced_threads=0 / nr=0 / decimate=1 / interlaced=0 / bluray_compat=0 / constrained_intra=0 / bframes=3 / b_pyramid=0 / b_adapt=1 / b_bias=0 / direct=3 / weightb=1 / open_gop=0 / weightp=2 / keyint=24 / keyint_min=2 / scenecut=40 / intra_refresh=0 / rc_lookahead=25 / rc=crf / mbtree=1 / crf=1.0 / qcomp=0.60 / qpmin=0 / qpmax=69 / qpstep=4 / vbv_maxrate=1800 / vbv_bufsize=1900 / crf_max=0.0 / nal_hrd=none / filler=0 / ip_ratio=1.40 / aq=2:1.00<br>
Default : Yes<br>
Forced : No<br>
<br>
Audio<br>
ID : 2<br>
Format : AAC LC<br>
Format/Info : Advanced Audio Codec Low Complexity<br>
Codec ID : A_AAC-2<br>
Duration : 20 min 24 s<br>
Bit rate : 192 kb/s<br>
Channel(s) : 2 channels<br>
Channel layout : L R<br>
Sampling rate : 44.1 kHz<br>
Frame rate : 43.066 FPS (1024 SPF)<br>
Compression mode : Lossy<br>
Delay relative to video : -23 ms<br>
Stream size : 28.3 MiB (10%)<br>
Language : English<br>
Default : Yes<br>
Forced : No<br>
<br>
Text<br>
ID : 3<br>
Format : UTF-8<br>
Codec ID : S_TEXT/UTF8<br>
Codec ID/Info : UTF-8 Plain Text<br>
Duration : 19 min 47 s<br>
Bit rate : 89 b/s<br>
Frame rate : 0.411 FPS<br>
Count of elements : 488<br>
Stream size : 12.9 KiB (0%)<br>
Language : English<br>
Default : No<br>
Forced : No<br>
<br>
<b><span style="text-decoration: underline">Episode 2: Pretty in Pink</span></b><br>
General<br>
Complete name : Bratz.S01E02.Pretty.in.Pink.720p.KDLE.WEB-DL.AAC2.0.x264-Samuel.mkv<br>
Format : Matroska<br>
Format version : Version 4<br>
File size : 287 MiB<br>
Duration : 21 min 7 s<br>
Overall bit rate : 1 898 kb/s<br>
Frame rate : 24.000 FPS<br>
Encoded date : 2023-05-01 09:41:07 UTC<br>
Writing application : mkvmerge v76.0 ('Celebration') 64-bit<br>
Writing library : libebml v1.4.4 + libmatroska v1.7.1 / Lavf58.32.104<br>
<br>
Video<br>
ID : 1<br>
Format : AVC<br>
Format/Info : Advanced Video Codec<br>
Format profile : High@L4.1<br>
Format settings : CABAC / 2 Ref Frames<br>
Format settings, CABAC : Yes<br>
Format settings, Reference frames : 2 frames<br>
Codec ID : V_MPEG4/ISO/AVC<br>
Duration : 21 min 7 s<br>
Bit rate : 1 701 kb/s<br>
Width : 1 280 pixels<br>
Height : 720 pixels<br>
Display aspect ratio : 16:9<br>
Frame rate mode : Constant<br>
Frame rate : 24.000 FPS<br>
Color space : YUV<br>
Chroma subsampling : 4:2:0<br>
Bit depth : 8 bits<br>
Scan type : Progressive<br>
Bits/(Pixel*Frame) : 0.077<br>
Stream size : 257 MiB (90%)<br>
Writing library : x264 core 155 r2917 0a84d98<br>
Encoding settings : cabac=1 / ref=1 / deblock=1:0:0 / analyse=0x3:0x133 / me=umh / subme=10 / psy=0 / mixed_ref=0 / me_range=24 / chroma_me=1 / trellis=2 / 8x8dct=1 / cqm=0 / deadzone=21,11 / fast_pskip=1 / chroma_qp_offset=0 / threads=22 / lookahead_threads=1 / sliced_threads=0 / nr=0 / decimate=1 / interlaced=0 / bluray_compat=0 / constrained_intra=0 / bframes=3 / b_pyramid=0 / b_adapt=1 / b_bias=0 / direct=3 / weightb=1 / open_gop=0 / weightp=2 / keyint=24 / keyint_min=2 / scenecut=40 / intra_refresh=0 / rc_lookahead=25 / rc=crf / mbtree=1 / crf=1.0 / qcomp=0.60 / qpmin=0 / qpmax=69 / qpstep=4 / vbv_maxrate=1800 / vbv_bufsize=1900 / crf_max=0.0 / nal_hrd=none / filler=0 / ip_ratio=1.40 / aq=2:1.00<br>
Default : Yes<br>
Forced : No<br>
<br>
Audio<br>
ID : 2<br>
Format : AAC LC<br>
Format/Info : Advanced Audio Codec Low Complexity<br>
Codec ID : A_AAC-2<br>
Duration : 21 min 7 s<br>
Bit rate : 192 kb/s<br>
Channel(s) : 2 channels<br>
Channel layout : L R<br>
Sampling rate : 44.1 kHz<br>
Frame rate : 43.066 FPS (1024 SPF)<br>
Compression mode : Lossy<br>
Delay relative to video : -23 ms<br>
Stream size : 29.3 MiB (10%)<br>
Language : English<br>
Default : Yes<br>
Forced : No<br>
<br>
Text<br>
ID : 3<br>
Format : UTF-8<br>
Codec ID : S_TEXT/UTF8<br>
Codec ID/Info : UTF-8 Plain Text<br>
Duration : 20 min 39 s<br>
Bit rate : 92 b/s<br>
Frame rate : 0.432 FPS<br>
Count of elements : 535<br>
Stream size : 14.0 KiB (0%)<br>
Language : English<br>
Default : No<br>
Forced : No<br>
<br>
<b><span style="text-decoration: underline">Episode 3: Rock Angelz</span></b><br>
General<br>
Complete name : Bratz.S01E03.Rock.Angelz.720p.KDLE.WEB-DL.AAC2.0.x264-Samuel.mkv<br>
Format : Matroska<br>
Format version : Version 4<br>
File size : 279 MiB<br>
Duration : 20 min 24 s<br>
Overall bit rate : 1 913 kb/s<br>
Frame rate : 24.000 FPS<br>
Encoded date : 2023-05-01 10:04:35 UTC<br>
Writing application : mkvmerge v76.0 ('Celebration') 64-bit<br>
Writing library : libebml v1.4.4 + libmatroska v1.7.1 / Lavf58.32.104<br>
<br>
Video<br>
ID : 1<br>
Format : AVC<br>
Format/Info : Advanced Video Codec<br>
Format profile : High@L4.1<br>
Format settings : CABAC / 2 Ref Frames<br>
Format settings, CABAC : Yes<br>
Format settings, Reference frames : 2 frames<br>
Codec ID : V_MPEG4/ISO/AVC<br>
Duration : 20 min 24 s<br>
Bit rate : 1 716 kb/s<br>
Width : 1 280 pixels<br>
Height : 720 pixels<br>
Display aspect ratio : 16:9<br>
Frame rate mode : Constant<br>
Frame rate : 24.000 FPS<br>
Color space : YUV<br>
Chroma subsampling : 4:2:0<br>
Bit depth : 8 bits<br>
Scan type : Progressive<br>
Bits/(Pixel*Frame) : 0.078<br>
Stream size : 251 MiB (90%)<br>
Writing library : x264 core 155 r2917 0a84d98<br>
Encoding settings : cabac=1 / ref=1 / deblock=1:0:0 / analyse=0x3:0x133 / me=umh / subme=10 / psy=0 / mixed_ref=0 / me_range=24 / chroma_me=1 / trellis=2 / 8x8dct=1 / cqm=0 / deadzone=21,11 / fast_pskip=1 / chroma_qp_offset=0 / threads=22 / lookahead_threads=1 / sliced_threads=0 / nr=0 / decimate=1 / interlaced=0 / bluray_compat=0 / constrained_intra=0 / bframes=3 / b_pyramid=0 / b_adapt=1 / b_bias=0 / direct=3 / weightb=1 / open_gop=0 / weightp=2 / keyint=24 / keyint_min=2 / scenecut=40 / intra_refresh=0 / rc_lookahead=25 / rc=crf / mbtree=1 / crf=1.0 / qcomp=0.60 / qpmin=0 / qpmax=69 / qpstep=4 / vbv_maxrate=1800 / vbv_bufsize=1900 / crf_max=0.0 / nal_hrd=none / filler=0 / ip_ratio=1.40 / aq=2:1.00<br>
Default : Yes<br>
Forced : No<br>
<br>
Audio<br>
ID : 2<br>
Format : AAC LC<br>
Format/Info : Advanced Audio Codec Low Complexity<br>
Codec ID : A_AAC-2<br>
Duration : 20 min 24 s<br>
Bit rate : 192 kb/s<br>
Channel(s) : 2 channels<br>
Channel layout : L R<br>
Sampling rate : 44.1 kHz<br>
Frame rate : 43.066 FPS (1024 SPF)<br>
Compression mode : Lossy<br>
Delay relative to video : -23 ms<br>
Stream size : 28.4 MiB (10%)<br>
Language : English<br>
Default : Yes<br>
Forced : No<br>
<br>
Text<br>
ID : 3<br>
Format : UTF-8<br>
Codec ID : S_TEXT/UTF8<br>
Codec ID/Info : UTF-8 Plain Text<br>
Duration : 19 min 50 s<br>
Bit rate : 81 b/s<br>
Frame rate : 0.342 FPS<br>
Count of elements : 407<br>
Stream size : 11.8 KiB (0%)<br>
Language : English<br>
Default : No<br>
Forced : No<br>
<br>
<b><span style="text-decoration: underline">Episode 7: Sasha's Big Interview</span></b><br>
General<br>
Complete name : Bratz.S01E07.Sashas.Big.Interview.720p.KDLE.WEB-DL.AAC2.0.x264-Samuel.mkv<br>
Format : Matroska<br>
Format version : Version 4<br>
File size : 271 MiB<br>
Duration : 20 min 27 s<br>
Overall bit rate : 1 853 kb/s<br>
Frame rate : 24.000 FPS<br>
Encoded date : 2023-05-01 10:10:57 UTC<br>
Writing application : mkvmerge v76.0 ('Celebration') 64-bit<br>
Writing library : libebml v1.4.4 + libmatroska v1.7.1 / Lavf58.32.104<br>
<br>
Video<br>
ID : 1<br>
Format : AVC<br>
Format/Info : Advanced Video Codec<br>
Format profile : High@L4.1<br>
Format settings : CABAC / 2 Ref Frames<br>
Format settings, CABAC : Yes<br>
Format settings, Reference frames : 2 frames<br>
Codec ID : V_MPEG4/ISO/AVC<br>
Duration : 20 min 27 s<br>
Bit rate : 1 655 kb/s<br>
Width : 1 280 pixels<br>
Height : 720 pixels<br>
Display aspect ratio : 16:9<br>
Frame rate mode : Constant<br>
Frame rate : 24.000 FPS<br>
Color space : YUV<br>
Chroma subsampling : 4:2:0<br>
Bit depth : 8 bits<br>
Scan type : Progressive<br>
Bits/(Pixel*Frame) : 0.075<br>
Stream size : 242 MiB (89%)<br>
Writing library : x264 core 155 r2917 0a84d98<br>
Encoding settings : cabac=1 / ref=1 / deblock=1:0:0 / analyse=0x3:0x133 / me=umh / subme=10 / psy=0 / mixed_ref=0 / me_range=24 / chroma_me=1 / trellis=2 / 8x8dct=1 / cqm=0 / deadzone=21,11 / fast_pskip=1 / chroma_qp_offset=0 / threads=22 / lookahead_threads=1 / sliced_threads=0 / nr=0 / decimate=1 / interlaced=0 / bluray_compat=0 / constrained_intra=0 / bframes=3 / b_pyramid=0 / b_adapt=1 / b_bias=0 / direct=3 / weightb=1 / open_gop=0 / weightp=2 / keyint=24 / keyint_min=2 / scenecut=40 / intra_refresh=0 / rc_lookahead=25 / rc=crf / mbtree=1 / crf=1.0 / qcomp=0.60 / qpmin=0 / qpmax=69 / qpstep=4 / vbv_maxrate=1800 / vbv_bufsize=1900 / crf_max=0.0 / nal_hrd=none / filler=0 / ip_ratio=1.40 / aq=2:1.00<br>
Default : Yes<br>
Forced : No<br>
<br>
Audio<br>
ID : 2<br>
Format : AAC LC<br>
Format/Info : Advanced Audio Codec Low Complexity<br>
Codec ID : A_AAC-2<br>
Duration : 20 min 27 s<br>
Bit rate : 192 kb/s<br>
Channel(s) : 2 channels<br>
Channel layout : L R<br>
Sampling rate : 44.1 kHz<br>
Frame rate : 43.066 FPS (1024 SPF)<br>
Compression mode : Lossy<br>
Delay relative to video : -23 ms<br>
Stream size : 28.6 MiB (11%)<br>
Language : English<br>
Default : Yes<br>
Forced : No<br>
<br>
Text<br>
ID : 3<br>
Format : UTF-8<br>
Codec ID : S_TEXT/UTF8<br>
Codec ID/Info : UTF-8 Plain Text<br>
Duration : 19 min 46 s<br>
Bit rate : 84 b/s<br>
Frame rate : 0.409 FPS<br>
Count of elements : 485<br>
Stream size : 12.3 KiB (0%)<br>
Language : English<br>
Default : No<br>
Forced : No<br>
<br>
<b><span style="text-decoration: underline">Episode 9: Pet Show</span></b><br>
General<br>
Complete name : Bratz.S01E09.Pet.Show.720p.KDLE.WEB-DL.AAC2.0.x264-Samuel.mkv<br>
Format : Matroska<br>
Format version : Version 4<br>
File size : 268 MiB<br>
Duration : 20 min 25 s<br>
Overall bit rate : 1 837 kb/s<br>
Frame rate : 24.000 FPS<br>
Encoded date : 2023-05-01 10:19:12 UTC<br>
Writing application : mkvmerge v76.0 ('Celebration') 64-bit<br>
Writing library : libebml v1.4.4 + libmatroska v1.7.1 / Lavf58.32.104<br>
<br>
Video<br>
ID : 1<br>
Format : AVC<br>
Format/Info : Advanced Video Codec<br>
Format profile : High@L4.1<br>
Format settings : CABAC / 2 Ref Frames<br>
Format settings, CABAC : Yes<br>
Format settings, Reference frames : 2 frames<br>
Codec ID : V_MPEG4/ISO/AVC<br>
Duration : 20 min 25 s<br>
Bit rate : 1 639 kb/s<br>
Width : 1 280 pixels<br>
Height : 720 pixels<br>
Display aspect ratio : 16:9<br>
Frame rate mode : Constant<br>
Frame rate : 24.000 FPS<br>
Color space : YUV<br>
Chroma subsampling : 4:2:0<br>
Bit depth : 8 bits<br>
Scan type : Progressive<br>
Bits/(Pixel*Frame) : 0.074<br>
Stream size : 239 MiB (89%)<br>
Writing library : x264 core 155 r2917 0a84d98<br>
Encoding settings : cabac=1 / ref=1 / deblock=1:0:0 / analyse=0x3:0x133 / me=umh / subme=10 / psy=0 / mixed_ref=0 / me_range=24 / chroma_me=1 / trellis=2 / 8x8dct=1 / cqm=0 / deadzone=21,11 / fast_pskip=1 / chroma_qp_offset=0 / threads=22 / lookahead_threads=1 / sliced_threads=0 / nr=0 / decimate=1 / interlaced=0 / bluray_compat=0 / constrained_intra=0 / bframes=3 / b_pyramid=0 / b_adapt=1 / b_bias=0 / direct=3 / weightb=1 / open_gop=0 / weightp=2 / keyint=24 / keyint_min=2 / scenecut=40 / intra_refresh=0 / rc_lookahead=25 / rc=crf / mbtree=1 / crf=1.0 / qcomp=0.60 / qpmin=0 / qpmax=69 / qpstep=4 / vbv_maxrate=1800 / vbv_bufsize=1900 / crf_max=0.0 / nal_hrd=none / filler=0 / ip_ratio=1.40 / aq=2:1.00<br>
Default : Yes<br>
Forced : No<br>
<br>
Audio<br>
ID : 2<br>
Format : AAC LC<br>
Format/Info : Advanced Audio Codec Low Complexity<br>
Codec ID : A_AAC-2<br>
Duration : 20 min 25 s<br>
Bit rate : 192 kb/s<br>
Channel(s) : 2 channels<br>
Channel layout : L R<br>
Sampling rate : 44.1 kHz<br>
Frame rate : 43.066 FPS (1024 SPF)<br>
Compression mode : Lossy<br>
Delay relative to video : -23 ms<br>
Stream size : 28.5 MiB (11%)<br>
Language : English<br>
Default : Yes<br>
Forced : No<br>
<br>
Text<br>
ID : 3<br>
Format : UTF-8<br>
Codec ID : S_TEXT/UTF8<br>
Codec ID/Info : UTF-8 Plain Text<br>
Duration : 19 min 56 s<br>
Bit rate : 85 b/s<br>
Frame rate : 0.390 FPS<br>
Count of elements : 467<br>
Stream size : 12.6 KiB (0%)<br>
Language : English<br>
Default : No<br>
Forced : No<br>
<br>
<b><span style="text-decoration: underline">Episode 10: Truth or Dare</span></b><br>
General<br>
Complete name : Bratz.S01E10.Truth.or.Dare.720p.KDLE.WEB-DL.AAC2.0.x264-Samuel.mkv<br>
Format : Matroska<br>
Format version : Version 4<br>
File size : 278 MiB<br>
Duration : 20 min 27 s<br>
Overall bit rate : 1 900 kb/s<br>
Frame rate : 24.000 FPS<br>
Encoded date : 2023-05-01 10:26:19 UTC<br>
Writing application : mkvmerge v76.0 ('Celebration') 64-bit<br>
Writing library : libebml v1.4.4 + libmatroska v1.7.1 / Lavf58.32.104<br>
<br>
Video<br>
ID : 1<br>
Format : AVC<br>
Format/Info : Advanced Video Codec<br>
Format profile : High@L4.1<br>
Format settings : CABAC / 2 Ref Frames<br>
Format settings, CABAC : Yes<br>
Format settings, Reference frames : 2 frames<br>
Codec ID : V_MPEG4/ISO/AVC<br>
Duration : 20 min 27 s<br>
Bit rate : 1 702 kb/s<br>
Width : 1 280 pixels<br>
Height : 720 pixels<br>
Display aspect ratio : 16:9<br>
Frame rate mode : Constant<br>
Frame rate : 24.000 FPS<br>
Color space : YUV<br>
Chroma subsampling : 4:2:0<br>
Bit depth : 8 bits<br>
Scan type : Progressive<br>
Bits/(Pixel*Frame) : 0.077<br>
Stream size : 249 MiB (90%)<br>
Writing library : x264 core 155 r2917 0a84d98<br>
Encoding settings : cabac=1 / ref=1 / deblock=1:0:0 / analyse=0x3:0x133 / me=umh / subme=10 / psy=0 / mixed_ref=0 / me_range=24 / chroma_me=1 / trellis=2 / 8x8dct=1 / cqm=0 / deadzone=21,11 / fast_pskip=1 / chroma_qp_offset=0 / threads=22 / lookahead_threads=1 / sliced_threads=0 / nr=0 / decimate=1 / interlaced=0 / bluray_compat=0 / constrained_intra=0 / bframes=3 / b_pyramid=0 / b_adapt=1 / b_bias=0 / direct=3 / weightb=1 / open_gop=0 / weightp=2 / keyint=24 / keyint_min=2 / scenecut=40 / intra_refresh=0 / rc_lookahead=25 / rc=crf / mbtree=1 / crf=1.0 / qcomp=0.60 / qpmin=0 / qpmax=69 / qpstep=4 / vbv_maxrate=1800 / vbv_bufsize=1900 / crf_max=0.0 / nal_hrd=none / filler=0 / ip_ratio=1.40 / aq=2:1.00<br>
Default : Yes<br>
Forced : No<br>
<br>
Audio<br>
ID : 2<br>
Format : AAC LC<br>
Format/Info : Advanced Audio Codec Low Complexity<br>
Codec ID : A_AAC-2<br>
Duration : 20 min 27 s<br>
Bit rate : 192 kb/s<br>
Channel(s) : 2 channels<br>
Channel layout : L R<br>
Sampling rate : 44.1 kHz<br>
Frame rate : 43.066 FPS (1024 SPF)<br>
Compression mode : Lossy<br>
Delay relative to video : -23 ms<br>
Stream size : 28.5 MiB (10%)<br>
Language : English<br>
Default : Yes<br>
Forced : No<br>
<br>
Text<br>
ID : 3<br>
Format : UTF-8<br>
Codec ID : S_TEXT/UTF8<br>
Codec ID/Info : UTF-8 Plain Text<br>
Duration : 19 min 56 s<br>
Bit rate : 93 b/s<br>
Frame rate : 0.400 FPS<br>
Count of elements : 478<br>
Stream size : 13.6 KiB (0%)<br>
Language : English<br>
Default : No<br>
Forced : No<br>
<br>
<b><span style="text-decoration: underline">Episode 12: It's Not About Me Week</span></b><br>
General<br>
Complete name : Bratz.S01E12.Its.Not.About.Me.Week.720p.KDLE.WEB-DL.AAC2.0.x264-Samuel.mkv<br>
Format : Matroska<br>
Format version : Version 4<br>
File size : 271 MiB<br>
Duration : 20 min 25 s<br>
Overall bit rate : 1 854 kb/s<br>
Frame rate : 24.000 FPS<br>
Encoded date : 2023-05-01 10:30:25 UTC<br>
Writing application : mkvmerge v76.0 ('Celebration') 64-bit<br>
Writing library : libebml v1.4.4 + libmatroska v1.7.1 / Lavf58.32.104<br>
<br>
Video<br>
ID : 1<br>
Format : AVC<br>
Format/Info : Advanced Video Codec<br>
Format profile : High@L4.1<br>
Format settings : CABAC / 2 Ref Frames<br>
Format settings, CABAC : Yes<br>
Format settings, Reference frames : 2 frames<br>
Codec ID : V_MPEG4/ISO/AVC<br>
Duration : 20 min 25 s<br>
Bit rate : 1 656 kb/s<br>
Width : 1 280 pixels<br>
Height : 720 pixels<br>
Display aspect ratio : 16:9<br>
Frame rate mode : Constant<br>
Frame rate : 24.000 FPS<br>
Color space : YUV<br>
Chroma subsampling : 4:2:0<br>
Bit depth : 8 bits<br>
Scan type : Progressive<br>
Bits/(Pixel*Frame) : 0.075<br>
Stream size : 242 MiB (89%)<br>
Writing library : x264 core 155 r2917 0a84d98<br>
Encoding settings : cabac=1 / ref=1 / deblock=1:0:0 / analyse=0x3:0x133 / me=umh / subme=10 / psy=0 / mixed_ref=0 / me_range=24 / chroma_me=1 / trellis=2 / 8x8dct=1 / cqm=0 / deadzone=21,11 / fast_pskip=1 / chroma_qp_offset=0 / threads=22 / lookahead_threads=1 / sliced_threads=0 / nr=0 / decimate=1 / interlaced=0 / bluray_compat=0 / constrained_intra=0 / bframes=3 / b_pyramid=0 / b_adapt=1 / b_bias=0 / direct=3 / weightb=1 / open_gop=0 / weightp=2 / keyint=24 / keyint_min=2 / scenecut=40 / intra_refresh=0 / rc_lookahead=25 / rc=crf / mbtree=1 / crf=1.0 / qcomp=0.60 / qpmin=0 / qpmax=69 / qpstep=4 / vbv_maxrate=1800 / vbv_bufsize=1900 / crf_max=0.0 / nal_hrd=none / filler=0 / ip_ratio=1.40 / aq=2:1.00<br>
Default : Yes<br>
Forced : No<br>
<br>
Audio<br>
ID : 2<br>
Format : AAC LC<br>
Format/Info : Advanced Audio Codec Low Complexity<br>
Codec ID : A_AAC-2<br>
Duration : 20 min 25 s<br>
Bit rate : 192 kb/s<br>
Channel(s) : 2 channels<br>
Channel layout : L R<br>
Sampling rate : 44.1 kHz<br>
Frame rate : 43.066 FPS (1024 SPF)<br>
Compression mode : Lossy<br>
Delay relative to video : -23 ms<br>
Stream size : 28.5 MiB (11%)<br>
Language : English<br>
Default : Yes<br>
Forced : No<br>
<br>
Text<br>
ID : 3<br>
Format : UTF-8<br>
Codec ID : S_TEXT/UTF8<br>
Codec ID/Info : UTF-8 Plain Text<br>
Duration : 19 min 54 s<br>
Bit rate : 84 b/s<br>
Frame rate : 0.374 FPS<br>
Count of elements : 447<br>
Stream size : 12.4 KiB (0%)<br>
Language : English<br>
Default : No<br>
Forced : No<br>
<br>
<b><span style="text-decoration: underline">Episode 13: Trading Faces</span></b><br>
General<br>
Complete name : Bratz.S01E13.Trading.Faces.720p.KDLE.WEB-DL.AAC2.0.x264-Samuel.mkv<br>
Format : Matroska<br>
Format version : Version 4<br>
File size : 275 MiB<br>
Duration : 20 min 25 s<br>
Overall bit rate : 1 885 kb/s<br>
Frame rate : 24.000 FPS<br>
Encoded date : 2023-05-01 12:34:44 UTC<br>
Writing application : mkvmerge v76.0 ('Celebration') 64-bit<br>
Writing library : libebml v1.4.4 + libmatroska v1.7.1 / Lavf58.32.104<br>
<br>
Video<br>
ID : 1<br>
Format : AVC<br>
Format/Info : Advanced Video Codec<br>
Format profile : High@L4.1<br>
Format settings : CABAC / 2 Ref Frames<br>
Format settings, CABAC : Yes<br>
Format settings, Reference frames : 2 frames<br>
Codec ID : V_MPEG4/ISO/AVC<br>
Duration : 20 min 25 s<br>
Bit rate : 1 688 kb/s<br>
Width : 1 280 pixels<br>
Height : 720 pixels<br>
Display aspect ratio : 16:9<br>
Frame rate mode : Constant<br>
Frame rate : 24.000 FPS<br>
Color space : YUV<br>
Chroma subsampling : 4:2:0<br>
Bit depth : 8 bits<br>
Scan type : Progressive<br>
Bits/(Pixel*Frame) : 0.076<br>
Stream size : 247 MiB (90%)<br>
Writing library : x264 core 155 r2917 0a84d98<br>
Encoding settings : cabac=1 / ref=1 / deblock=1:0:0 / analyse=0x3:0x133 / me=umh / subme=10 / psy=0 / mixed_ref=0 / me_range=24 / chroma_me=1 / trellis=2 / 8x8dct=1 / cqm=0 / deadzone=21,11 / fast_pskip=1 / chroma_qp_offset=0 / threads=22 / lookahead_threads=1 / sliced_threads=0 / nr=0 / decimate=1 / interlaced=0 / bluray_compat=0 / constrained_intra=0 / bframes=3 / b_pyramid=0 / b_adapt=1 / b_bias=0 / direct=3 / weightb=1 / open_gop=0 / weightp=2 / keyint=24 / keyint_min=2 / scenecut=40 / intra_refresh=0 / rc_lookahead=25 / rc=crf / mbtree=1 / crf=1.0 / qcomp=0.60 / qpmin=0 / qpmax=69 / qpstep=4 / vbv_maxrate=1800 / vbv_bufsize=1900 / crf_max=0.0 / nal_hrd=none / filler=0 / ip_ratio=1.40 / aq=2:1.00<br>
Default : Yes<br>
Forced : No<br>
<br>
Audio<br>
ID : 2<br>
Format : AAC LC<br>
Format/Info : Advanced Audio Codec Low Complexity<br>
Codec ID : A_AAC-2<br>
Duration : 20 min 25 s<br>
Bit rate : 192 kb/s<br>
Channel(s) : 2 channels<br>
Channel layout : L R<br>
Sampling rate : 44.1 kHz<br>
Frame rate : 43.066 FPS (1024 SPF)<br>
Compression mode : Lossy<br>
Delay relative to video : -23 ms<br>
Stream size : 28.4 MiB (10%)<br>
Language : English<br>
Default : Yes<br>
Forced : No<br>
<br>
Text<br>
ID : 3<br>
Format : UTF-8<br>
Codec ID : S_TEXT/UTF8<br>
Codec ID/Info : UTF-8 Plain Text<br>
Duration : 19 min 50 s<br>
Bit rate : 89 b/s<br>
Frame rate : 0.458 FPS<br>
Count of elements : 546<br>
Stream size : 13.0 KiB (0%)<br>
Language : English<br>
Default : No<br>
Forced : No<br>
<br>
<b><span style="text-decoration: underline">Episode 14: Camping</span></b><br>
General<br>
Complete name : Bratz.S01E14.Camping.720p.KDLE.WEB-DL.AAC2.0.x264-Samuel.mkv<br>
Format : Matroska<br>
Format version : Version 4<br>
File size : 265 MiB<br>
Duration : 20 min 24 s<br>
Overall bit rate : 1 813 kb/s<br>
Frame rate : 24.000 FPS<br>
Encoded date : 2023-05-01 13:23:01 UTC<br>
Writing application : mkvmerge v76.0 ('Celebration') 64-bit<br>
Writing library : libebml v1.4.4 + libmatroska v1.7.1 / Lavf58.32.104<br>
<br>
Video<br>
ID : 1<br>
Format : AVC<br>
Format/Info : Advanced Video Codec<br>
Format profile : High@L4.1<br>
Format settings : CABAC / 2 Ref Frames<br>
Format settings, CABAC : Yes<br>
Format settings, Reference frames : 2 frames<br>
Codec ID : V_MPEG4/ISO/AVC<br>
Duration : 20 min 24 s<br>
Bit rate : 1 616 kb/s<br>
Width : 1 280 pixels<br>
Height : 720 pixels<br>
Display aspect ratio : 16:9<br>
Frame rate mode : Constant<br>
Frame rate : 24.000 FPS<br>
Color space : YUV<br>
Chroma subsampling : 4:2:0<br>
Bit depth : 8 bits<br>
Scan type : Progressive<br>
Bits/(Pixel*Frame) : 0.073<br>
Stream size : 236 MiB (89%)<br>
Writing library : x264 core 155 r2917 0a84d98<br>
Encoding settings : cabac=1 / ref=1 / deblock=1:0:0 / analyse=0x3:0x133 / me=umh / subme=10 / psy=0 / mixed_ref=0 / me_range=24 / chroma_me=1 / trellis=2 / 8x8dct=1 / cqm=0 / deadzone=21,11 / fast_pskip=1 / chroma_qp_offset=0 / threads=22 / lookahead_threads=1 / sliced_threads=0 / nr=0 / decimate=1 / interlaced=0 / bluray_compat=0 / constrained_intra=0 / bframes=3 / b_pyramid=0 / b_adapt=1 / b_bias=0 / direct=3 / weightb=1 / open_gop=0 / weightp=2 / keyint=24 / keyint_min=2 / scenecut=40 / intra_refresh=0 / rc_lookahead=25 / rc=crf / mbtree=1 / crf=1.0 / qcomp=0.60 / qpmin=0 / qpmax=69 / qpstep=4 / vbv_maxrate=1800 / vbv_bufsize=1900 / crf_max=0.0 / nal_hrd=none / filler=0 / ip_ratio=1.40 / aq=2:1.00<br>
Default : Yes<br>
Forced : No<br>
<br>
Audio<br>
ID : 2<br>
Format : AAC LC<br>
Format/Info : Advanced Audio Codec Low Complexity<br>
Codec ID : A_AAC-2<br>
Duration : 20 min 24 s<br>
Bit rate : 192 kb/s<br>
Channel(s) : 2 channels<br>
Channel layout : L R<br>
Sampling rate : 44.1 kHz<br>
Frame rate : 43.066 FPS (1024 SPF)<br>
Compression mode : Lossy<br>
Delay relative to video : -23 ms<br>
Stream size : 28.3 MiB (11%)<br>
Language : English<br>
Default : Yes<br>
Forced : No<br>
<br>
Text<br>
ID : 3<br>
Format : UTF-8<br>
Codec ID : S_TEXT/UTF8<br>
Codec ID/Info : UTF-8 Plain Text<br>
Duration : 19 min 52 s<br>
Bit rate : 81 b/s<br>
Frame rate : 0.331 FPS<br>
Count of elements : 395<br>
Stream size : 11.9 KiB (0%)<br>
Language : English<br>
Default : No<br>
Forced : No<br>
<br>
<b><span style="text-decoration: underline">Episode 17: Bewitched Bothered and Burdined</span></b><br>
General<br>
Complete name : Bratz.S01E17.Bewitched.Bothered.and.Burdined.720p.KDLE.WEB-DL.AAC2.0.x264-Samuel.mkv<br>
Format : Matroska<br>
Format version : Version 4<br>
File size : 261 MiB<br>
Duration : 19 min 56 s<br>
Overall bit rate : 1 829 kb/s<br>
Frame rate : 24.000 FPS<br>
Encoded date : 2023-05-01 13:27:22 UTC<br>
Writing application : mkvmerge v76.0 ('Celebration') 64-bit<br>
Writing library : libebml v1.4.4 + libmatroska v1.7.1 / Lavf58.32.104<br>
<br>
Video<br>
ID : 1<br>
Format : AVC<br>
Format/Info : Advanced Video Codec<br>
Format profile : High@L4.1<br>
Format settings : CABAC / 2 Ref Frames<br>
Format settings, CABAC : Yes<br>
Format settings, Reference frames : 2 frames<br>
Codec ID : V_MPEG4/ISO/AVC<br>
Duration : 19 min 56 s<br>
Bit rate : 1 633 kb/s<br>
Width : 1 280 pixels<br>
Height : 720 pixels<br>
Display aspect ratio : 16:9<br>
Frame rate mode : Constant<br>
Frame rate : 24.000 FPS<br>
Color space : YUV<br>
Chroma subsampling : 4:2:0<br>
Bit depth : 8 bits<br>
Scan type : Progressive<br>
Bits/(Pixel*Frame) : 0.074<br>
Stream size : 233 MiB (89%)<br>
Writing library : x264 core 155 r2917 0a84d98<br>
Encoding settings : cabac=1 / ref=1 / deblock=1:0:0 / analyse=0x3:0x133 / me=umh / subme=10 / psy=0 / mixed_ref=0 / me_range=24 / chroma_me=1 / trellis=2 / 8x8dct=1 / cqm=0 / deadzone=21,11 / fast_pskip=1 / chroma_qp_offset=0 / threads=22 / lookahead_threads=1 / sliced_threads=0 / nr=0 / decimate=1 / interlaced=0 / bluray_compat=0 / constrained_intra=0 / bframes=3 / b_pyramid=0 / b_adapt=1 / b_bias=0 / direct=3 / weightb=1 / open_gop=0 / weightp=2 / keyint=24 / keyint_min=2 / scenecut=40 / intra_refresh=0 / rc_lookahead=25 / rc=crf / mbtree=1 / crf=1.0 / qcomp=0.60 / qpmin=0 / qpmax=69 / qpstep=4 / vbv_maxrate=1800 / vbv_bufsize=1900 / crf_max=0.0 / nal_hrd=none / filler=0 / ip_ratio=1.40 / aq=2:1.00<br>
Default : Yes<br>
Forced : No<br>
<br>
Audio<br>
ID : 2<br>
Format : AAC LC<br>
Format/Info : Advanced Audio Codec Low Complexity<br>
Codec ID : A_AAC-2<br>
Duration : 19 min 56 s<br>
Bit rate : 192 kb/s<br>
Channel(s) : 2 channels<br>
Channel layout : L R<br>
Sampling rate : 44.1 kHz<br>
Frame rate : 43.066 FPS (1024 SPF)<br>
Compression mode : Lossy<br>
Delay relative to video : -23 ms<br>
Stream size : 27.6 MiB (11%)<br>
Language : English<br>
Default : Yes<br>
Forced : No<br>
<br>
Text<br>
ID : 3<br>
Format : UTF-8<br>
Codec ID : S_TEXT/UTF8<br>
Codec ID/Info : UTF-8 Plain Text<br>
Duration : 19 min 27 s<br>
Bit rate : 97 b/s<br>
Frame rate : 0.452 FPS<br>
Count of elements : 528<br>
Stream size : 13.9 KiB (0%)<br>
Language : English<br>
Default : No<br>
Forced : No<br>
<br>
<b><span style="text-decoration: underline">Episode 19: Happy Birthday Jasmin</span></b><br>
General<br>
Complete name : Bratz.S01E19.Happy.Birthday.Jasmin.720p.KDLE.WEB-DL.AAC2.0.x264-Samuel.mkv<br>
Format : Matroska<br>
Format version : Version 4<br>
File size : 272 MiB<br>
Duration : 20 min 25 s<br>
Overall bit rate : 1 860 kb/s<br>
Frame rate : 24.000 FPS<br>
Encoded date : 2023-05-01 14:36:38 UTC<br>
Writing application : mkvmerge v76.0 ('Celebration') 64-bit<br>
Writing library : libebml v1.4.4 + libmatroska v1.7.1 / Lavf58.32.104<br>
<br>
Video<br>
ID : 1<br>
Format : AVC<br>
Format/Info : Advanced Video Codec<br>
Format profile : High@L4.1<br>
Format settings : CABAC / 2 Ref Frames<br>
Format settings, CABAC : Yes<br>
Format settings, Reference frames : 2 frames<br>
Codec ID : V_MPEG4/ISO/AVC<br>
Duration : 20 min 25 s<br>
Bit rate : 1 663 kb/s<br>
Width : 1 280 pixels<br>
Height : 720 pixels<br>
Display aspect ratio : 16:9<br>
Frame rate mode : Constant<br>
Frame rate : 24.000 FPS<br>
Color space : YUV<br>
Chroma subsampling : 4:2:0<br>
Bit depth : 8 bits<br>
Scan type : Progressive<br>
Bits/(Pixel*Frame) : 0.075<br>
Stream size : 243 MiB (89%)<br>
Writing library : x264 core 155 r2917 0a84d98<br>
Encoding settings : cabac=1 / ref=1 / deblock=1:0:0 / analyse=0x3:0x133 / me=umh / subme=10 / psy=0 / mixed_ref=0 / me_range=24 / chroma_me=1 / trellis=2 / 8x8dct=1 / cqm=0 / deadzone=21,11 / fast_pskip=1 / chroma_qp_offset=0 / threads=22 / lookahead_threads=1 / sliced_threads=0 / nr=0 / decimate=1 / interlaced=0 / bluray_compat=0 / constrained_intra=0 / bframes=3 / b_pyramid=0 / b_adapt=1 / b_bias=0 / direct=3 / weightb=1 / open_gop=0 / weightp=2 / keyint=24 / keyint_min=2 / scenecut=40 / intra_refresh=0 / rc_lookahead=25 / rc=crf / mbtree=1 / crf=1.0 / qcomp=0.60 / qpmin=0 / qpmax=69 / qpstep=4 / vbv_maxrate=1800 / vbv_bufsize=1900 / crf_max=0.0 / nal_hrd=none / filler=0 / ip_ratio=1.40 / aq=2:1.00<br>
Default : Yes<br>
Forced : No<br>
<br>
Audio<br>
ID : 2<br>
Format : AAC LC<br>
Format/Info : Advanced Audio Codec Low Complexity<br>
Codec ID : A_AAC-2<br>
Duration : 20 min 25 s<br>
Bit rate : 192 kb/s<br>
Channel(s) : 2 channels<br>
Channel layout : L R<br>
Sampling rate : 44.1 kHz<br>
Frame rate : 43.066 FPS (1024 SPF)<br>
Compression mode : Lossy<br>
Delay relative to video : -23 ms<br>
Stream size : 28.4 MiB (10%)<br>
Language : English<br>
Default : Yes<br>
Forced : No<br>
<br>
Text<br>
ID : 3<br>
Format : UTF-8<br>
Codec ID : S_TEXT/UTF8<br>
Codec ID/Info : UTF-8 Plain Text<br>
Duration : 19 min 49 s<br>
Bit rate : 99 b/s<br>
Frame rate : 0.393 FPS<br>
Count of elements : 468<br>
Stream size : 14.5 KiB (0%)<br>
Language : English<br>
Default : No<br>
Forced : No<br>
<br>
<b><span style="text-decoration: underline">Episode 24: Babes in Playland Part 1</span></b><br>
General<br>
Complete name : Bratz.S01E24.Babes.in.Playland.Part.1.720p.KDLE.WEB-DL.AAC2.0.x264-Samuel.mkv<br>
Format : Matroska<br>
Format version : Version 4<br>
File size : 268 MiB<br>
Duration : 20 min 24 s<br>
Overall bit rate : 1 839 kb/s<br>
Frame rate : 24.000 FPS<br>
Encoded date : 2023-05-01 16:15:45 UTC<br>
Writing application : mkvmerge v76.0 ('Celebration') 64-bit<br>
Writing library : libebml v1.4.4 + libmatroska v1.7.1 / Lavf58.32.104<br>
<br>
Video<br>
ID : 1<br>
Format : AVC<br>
Format/Info : Advanced Video Codec<br>
Format profile : High@L4.1<br>
Format settings : CABAC / 2 Ref Frames<br>
Format settings, CABAC : Yes<br>
Format settings, Reference frames : 2 frames<br>
Codec ID : V_MPEG4/ISO/AVC<br>
Duration : 20 min 24 s<br>
Bit rate : 1 643 kb/s<br>
Width : 1 280 pixels<br>
Height : 720 pixels<br>
Display aspect ratio : 16:9<br>
Frame rate mode : Constant<br>
Frame rate : 24.000 FPS<br>
Color space : YUV<br>
Chroma subsampling : 4:2:0<br>
Bit depth : 8 bits<br>
Scan type : Progressive<br>
Bits/(Pixel*Frame) : 0.074<br>
Stream size : 240 MiB (89%)<br>
Writing library : x264 core 155 r2917 0a84d98<br>
Encoding settings : cabac=1 / ref=1 / deblock=1:0:0 / analyse=0x3:0x133 / me=umh / subme=10 / psy=0 / mixed_ref=0 / me_range=24 / chroma_me=1 / trellis=2 / 8x8dct=1 / cqm=0 / deadzone=21,11 / fast_pskip=1 / chroma_qp_offset=0 / threads=22 / lookahead_threads=1 / sliced_threads=0 / nr=0 / decimate=1 / interlaced=0 / bluray_compat=0 / constrained_intra=0 / bframes=3 / b_pyramid=0 / b_adapt=1 / b_bias=0 / direct=3 / weightb=1 / open_gop=0 / weightp=2 / keyint=24 / keyint_min=2 / scenecut=40 / intra_refresh=0 / rc_lookahead=25 / rc=crf / mbtree=1 / crf=1.0 / qcomp=0.60 / qpmin=0 / qpmax=69 / qpstep=4 / vbv_maxrate=1800 / vbv_bufsize=1900 / crf_max=0.0 / nal_hrd=none / filler=0 / ip_ratio=1.40 / aq=2:1.00<br>
Default : Yes<br>
Forced : No<br>
<br>
Audio<br>
ID : 2<br>
Format : AAC LC<br>
Format/Info : Advanced Audio Codec Low Complexity<br>
Codec ID : A_AAC-2<br>
Duration : 20 min 24 s<br>
Bit rate : 192 kb/s<br>
Channel(s) : 2 channels<br>
Channel layout : L R<br>
Sampling rate : 44.1 kHz<br>
Frame rate : 43.066 FPS (1024 SPF)<br>
Compression mode : Lossy<br>
Delay relative to video : -23 ms<br>
Stream size : 28.3 MiB (11%)<br>
Language : English<br>
Default : Yes<br>
Forced : No<br>
<br>
<b><span style="text-decoration: underline">Episode 25: Babes in Playland Part 2</span></b><br>
General<br>
Complete name : Bratz.S01E25.Babes.in.Playland.Part 2.720p.KDLE.WEB-DL.AAC2.0.x264-Samuel.mkv<br>
Format : Matroska<br>
Format version : Version 4<br>
File size : 269 MiB<br>
Duration : 20 min 25 s<br>
Overall bit rate : 1 843 kb/s<br>
Frame rate : 24.000 FPS<br>
Encoded date : 2023-05-01 16:20:08 UTC<br>
Writing application : mkvmerge v76.0 ('Celebration') 64-bit<br>
Writing library : libebml v1.4.4 + libmatroska v1.7.1 / Lavf58.32.104<br>
<br>
Video<br>
ID : 1<br>
Format : AVC<br>
Format/Info : Advanced Video Codec<br>
Format profile : High@L4.1<br>
Format settings : CABAC / 2 Ref Frames<br>
Format settings, CABAC : Yes<br>
Format settings, Reference frames : 2 frames<br>
Codec ID : V_MPEG4/ISO/AVC<br>
Duration : 20 min 25 s<br>
Bit rate : 1 646 kb/s<br>
Width : 1 280 pixels<br>
Height : 720 pixels<br>
Display aspect ratio : 16:9<br>
Frame rate mode : Constant<br>
Frame rate : 24.000 FPS<br>
Color space : YUV<br>
Chroma subsampling : 4:2:0<br>
Bit depth : 8 bits<br>
Scan type : Progressive<br>
Bits/(Pixel*Frame) : 0.074<br>
Stream size : 240 MiB (89%)<br>
Writing library : x264 core 155 r2917 0a84d98<br>
Encoding settings : cabac=1 / ref=1 / deblock=1:0:0 / analyse=0x3:0x133 / me=umh / subme=10 / psy=0 / mixed_ref=0 / me_range=24 / chroma_me=1 / trellis=2 / 8x8dct=1 / cqm=0 / deadzone=21,11 / fast_pskip=1 / chroma_qp_offset=0 / threads=22 / lookahead_threads=1 / sliced_threads=0 / nr=0 / decimate=1 / interlaced=0 / bluray_compat=0 / constrained_intra=0 / bframes=3 / b_pyramid=0 / b_adapt=1 / b_bias=0 / direct=3 / weightb=1 / open_gop=0 / weightp=2 / keyint=24 / keyint_min=2 / scenecut=40 / intra_refresh=0 / rc_lookahead=25 / rc=crf / mbtree=1 / crf=1.0 / qcomp=0.60 / qpmin=0 / qpmax=69 / qpstep=4 / vbv_maxrate=1800 / vbv_bufsize=1900 / crf_max=0.0 / nal_hrd=none / filler=0 / ip_ratio=1.40 / aq=2:1.00<br>
Default : Yes<br>
Forced : No<br>
<br>
Audio<br>
ID : 2<br>
Format : AAC LC<br>
Format/Info : Advanced Audio Codec Low Complexity<br>
Codec ID : A_AAC-2<br>
Duration : 20 min 25 s<br>
Bit rate : 192 kb/s<br>
Channel(s) : 2 channels<br>
Channel layout : L R<br>
Sampling rate : 44.1 kHz<br>
Frame rate : 43.066 FPS (1024 SPF)<br>
Compression mode : Lossy<br>
Delay relative to video : -23 ms<br>
Stream size : 28.4 MiB (11%)<br>
Language : English<br>
Default : Yes<br>
Forced : No<br>
<br>
Text<br>
ID : 3<br>
Format : UTF-8<br>
Codec ID : S_TEXT/UTF8<br>
Codec ID/Info : UTF-8 Plain Text<br>
Duration : 19 min 51 s<br>
Bit rate : 81 b/s<br>
Frame rate : 0.356 FPS<br>
Count of elements : 424<br>
Stream size : 11.8 KiB (0%)<br>
Language : English<br>
Default : No<br>
Forced : No<br>
<br>
<b><span style="text-decoration: underline">Episode 26: Babes in Playland Part 3</span></b><br>
General<br>
Complete name : Bratz.S01E26.Babes.in.Playland.Part 3.720p.KDLE.WEB-DL.AAC2.0.x264-Samuel.mkv<br>
Format : Matroska<br>
Format version : Version 4<br>
File size : 279 MiB<br>
Duration : 20 min 25 s<br>
Overall bit rate : 1 907 kb/s<br>
Frame rate : 24.000 FPS<br>
Encoded date : 2023-05-01 16:29:18 UTC<br>
Writing application : mkvmerge v76.0 ('Celebration') 64-bit<br>
Writing library : libebml v1.4.4 + libmatroska v1.7.1 / Lavf58.32.104<br>
<br>
Video<br>
ID : 1<br>
Format : AVC<br>
Format/Info : Advanced Video Codec<br>
Format profile : High@L4.1<br>
Format settings : CABAC / 2 Ref Frames<br>
Format settings, CABAC : Yes<br>
Format settings, Reference frames : 2 frames<br>
Codec ID : V_MPEG4/ISO/AVC<br>
Duration : 20 min 25 s<br>
Bit rate : 1 710 kb/s<br>
Width : 1 280 pixels<br>
Height : 720 pixels<br>
Display aspect ratio : 16:9<br>
Frame rate mode : Constant<br>
Frame rate : 24.000 FPS<br>
Color space : YUV<br>
Chroma subsampling : 4:2:0<br>
Bit depth : 8 bits<br>
Scan type : Progressive<br>
Bits/(Pixel*Frame) : 0.077<br>
Stream size : 250 MiB (90%)<br>
Writing library : x264 core 155 r2917 0a84d98<br>
Encoding settings : cabac=1 / ref=1 / deblock=1:0:0 / analyse=0x3:0x133 / me=umh / subme=10 / psy=0 / mixed_ref=0 / me_range=24 / chroma_me=1 / trellis=2 / 8x8dct=1 / cqm=0 / deadzone=21,11 / fast_pskip=1 / chroma_qp_offset=0 / threads=22 / lookahead_threads=1 / sliced_threads=0 / nr=0 / decimate=1 / interlaced=0 / bluray_compat=0 / constrained_intra=0 / bframes=3 / b_pyramid=0 / b_adapt=1 / b_bias=0 / direct=3 / weightb=1 / open_gop=0 / weightp=2 / keyint=24 / keyint_min=2 / scenecut=40 / intra_refresh=0 / rc_lookahead=25 / rc=crf / mbtree=1 / crf=1.0 / qcomp=0.60 / qpmin=0 / qpmax=69 / qpstep=4 / vbv_maxrate=1800 / vbv_bufsize=1900 / crf_max=0.0 / nal_hrd=none / filler=0 / ip_ratio=1.40 / aq=2:1.00<br>
Default : Yes<br>
Forced : No<br>
<br>
Audio<br>
ID : 2<br>
Format : AAC LC<br>
Format/Info : Advanced Audio Codec Low Complexity<br>
Codec ID : A_AAC-2<br>
Duration : 20 min 25 s<br>
Bit rate : 192 kb/s<br>
Channel(s) : 2 channels<br>
Channel layout : L R<br>
Sampling rate : 44.1 kHz<br>
Frame rate : 43.066 FPS (1024 SPF)<br>
Compression mode : Lossy<br>
Delay relative to video : -23 ms<br>
Stream size : 28.3 MiB (10%)<br>
Language : English<br>
Default : Yes<br>
Forced : No<br>
<br>
Text<br>
ID : 3<br>
Format : UTF-8<br>
Codec ID : S_TEXT/UTF8<br>
Codec ID/Info : UTF-8 Plain Text<br>
Duration : 19 min 49 s<br>
Bit rate : 83 b/s<br>
Frame rate : 0.362 FPS<br>
Count of elements : 430<br>
Stream size : 12.1 KiB (0%)<br>
Language : English<br>
Default : No<br>
Forced : No</div>
</div><br>
<b>Screenshots</b><br>
<img src="https://i.imgur.com/Q2DPsL4.png" class="bbCodeImage LbImage" alt="[​IMG]" data-url="https://i.imgur.com/Q2DPsL4.png" style=""><br>
<a href="https://imgur.com/a/3N9btVO" target="_blank" class="externalLink" rel="nofollow"><b>More Episodes Screenshots</b></a><br>
<br>
<b>Download</b><br>
<div class="bbCodeBlock bbCodeVfcHH HiddenContent">
<div class="attribution type">Hidden Content:</div>
<blockquote>You must reply before you can see the hidden data contained here.</blockquote>
</div></div>
<div class="messageTextEndMarker">&nbsp;</div>
</blockquote>
</article>]]></description>
                <author><![CDATA[Samuel]]></author>
                </item>

                
                <item>
                <title><![CDATA[【Music Videos】Funky Diamonds - I Know That You Want Me (DTS-HD 5.1)]]></title>
                <link><![CDATA[https://sharemania.us/threads/funky-diamonds-i-know-that-you-want-me-dts-hd-5-1.235071/]]></link>
                <description><![CDATA[<article>
<blockquote class="messageText SelectQuoteContainer ugc baseHtml">
This season is incomplete.<br>
<br>
If anyone here from the US has a "<b>Spectrum account with Kabillion add-on</b>", please PM me. I'm able to rip as Spectrum has the full <a href="https://ondemand.spectrum.net/tv/kabillion/599527/bratz/" target="_blank" class="externalLink" rel="nofollow">Season 1</a> provided by Kabillion.<br>
<br>
<a href="https://ondemand.spectrum.net/tv/kabillion/599527/bratz/" target="_blank" class="externalLink" rel="nofollow">https://ondemand.spectrum.net/tv/kabillion/599527/bratz/</a>
<div class="messageTextEndMarker">&nbsp;</div>
</blockquote>
</article>]]></description>
                <author><![CDATA[DJ-RoGeRs-BS]]></author>
                </item>

                </channel></rss>